<svg width="30" height="29" viewBox="0 0 30 29" fill="none" xmlns="http://www.w3.org/2000/svg">
<path d="M7.11858 28.0368L7.12739 28.0367L7.13619 28.0364C7.3398 28.0274 7.53371 27.9473 7.68415 27.81L7.68514 27.809L13.2903 22.6656H24.5485C24.7793 22.6656 25.0005 22.5738 25.1635 22.4106C25.3265 22.2474 25.418 22.0262 25.418 21.7957V3.90263C25.418 3.6721 25.3265 3.45091 25.1635 3.28774C25.0005 3.12455 24.7793 3.03271 24.5485 3.03271H1.36945C1.13862 3.03271 0.917419 3.12455 0.754434 3.28774C0.591471 3.45091 0.5 3.6721 0.5 3.90263V21.8031C0.5 22.0336 0.591471 22.2548 0.754434 22.418C0.917419 22.5812 1.13862 22.673 1.36945 22.673H6.24489L6.24488 27.1669L6.2449 27.1702C6.246 27.3383 6.29576 27.5026 6.38829 27.6431C6.47904 27.7809 6.60706 27.89 6.75739 27.9577C6.87024 28.0108 6.99367 28.0379 7.11858 28.0368ZM7.98378 25.1873V21.8031C7.98378 21.5725 7.89231 21.3513 7.72935 21.1882C7.56636 21.025 7.34516 20.9331 7.11434 20.9331H2.23889V4.77255H23.6791V20.922H12.959V20.922L12.9499 20.9221C12.7405 20.9259 12.5391 21.0031 12.3807 21.14L12.3748 21.1451L12.3691 21.1504L7.98378 25.1873Z" fill="black" stroke="black"/>
<path d="M24.5485 20.7642H27.7995C27.7995 20.7642 27.7996 20.7642 27.7996 20.7642C27.9152 20.7642 28.0298 20.7412 28.1365 20.6963C28.2433 20.6514 28.3399 20.5856 28.4208 20.503C28.5017 20.4203 28.5653 20.3224 28.6079 20.2149C28.6498 20.1093 28.6705 19.9965 28.6691 19.8829V1.37236C28.6691 1.14182 28.5776 0.920639 28.4146 0.757467C28.2516 0.594273 28.0304 0.502441 27.7996 0.502441H4.62055C4.38972 0.502441 4.16852 0.594273 4.00553 0.757467C3.84257 0.920639 3.7511 1.14182 3.7511 1.37236V3.90262C3.7511 4.13316 3.84257 4.35435 4.00553 4.51752C4.16852 4.68071 4.38972 4.77254 4.62055 4.77254C4.85137 4.77254 5.07257 4.68071 5.23556 4.51752C5.39852 4.35435 5.48999 4.13316 5.48999 3.90262V2.24969H26.9302V19.0243H24.5485C24.3177 19.0243 24.0965 19.1162 23.9335 19.2794C23.7705 19.4425 23.679 19.6637 23.679 19.8943C23.679 20.1248 23.7705 20.346 23.9335 20.5092C24.0965 20.6724 24.3177 20.7642 24.5485 20.7642Z" fill="black" stroke="black"/>
<path d="M21.2038 21.8031V23.2772L18.8979 21.161L18.8979 21.161L18.897 21.1602C18.7266 21.0045 18.5012 20.9229 18.2705 20.9335C18.0398 20.9441 17.8229 21.0461 17.6675 21.2167C17.5121 21.3873 17.4308 21.6126 17.4413 21.843C17.4519 22.073 17.5531 22.2896 17.7229 22.4452C17.7233 22.4455 17.7236 22.4458 17.7239 22.4461L21.4672 25.8947C21.6223 26.0393 21.8248 26.1221 22.0365 26.1278C22.1725 26.1341 22.308 26.1069 22.4311 26.0486C22.5811 25.9808 22.7088 25.8718 22.7993 25.7344C22.8919 25.5939 22.9416 25.4296 22.9427 25.2614H22.9427V25.2582V21.8031C22.9427 21.5726 22.8513 21.3514 22.6883 21.1882C22.5253 21.025 22.3041 20.9332 22.0733 20.9332C21.8425 20.9332 21.6213 21.025 21.4583 21.1882C21.2953 21.3514 21.2038 21.5726 21.2038 21.8031Z" fill="black" stroke="black"/>
<path d="M21.1311 9.29233H4.62055C4.52256 9.29233 4.4286 9.25335 4.35931 9.18398C4.29003 9.1146 4.2511 9.02052 4.2511 8.92241C4.2511 8.8243 4.29003 8.73022 4.35931 8.66084C4.4286 8.59147 4.52256 8.55249 4.62055 8.55249H21.1311C21.2291 8.55249 21.3231 8.59147 21.3923 8.66084C21.4616 8.73022 21.5006 8.8243 21.5006 8.92241C21.5006 9.02052 21.4616 9.1146 21.3923 9.18398C21.3231 9.25335 21.2291 9.29233 21.1311 9.29233Z" fill="black"/>
<path d="M21.1311 12.5995H4.62055C4.52256 12.5995 4.4286 12.5605 4.35931 12.4911C4.29003 12.4217 4.2511 12.3276 4.2511 12.2295C4.2511 12.1314 4.29003 12.0373 4.35931 11.968C4.4286 11.8986 4.52256 11.8596 4.62055 11.8596H21.1311C21.2291 11.8596 21.3231 11.8986 21.3923 11.968C21.4616 12.0373 21.5006 12.1314 21.5006 12.2295C21.5006 12.3276 21.4616 12.4217 21.3923 12.4911C21.3231 12.5605 21.2291 12.5995 21.1311 12.5995Z" fill="black"/>
<path d="M11.2189 15.9066H4.62055C4.52256 15.9066 4.4286 15.8676 4.35931 15.7982C4.29003 15.7289 4.2511 15.6348 4.2511 15.5367C4.2511 15.4386 4.29003 15.3445 4.35931 15.2751C4.4286 15.2057 4.52256 15.1667 4.62055 15.1667H11.2189C11.3168 15.1667 11.4108 15.2057 11.4801 15.2751C11.5494 15.3445 11.5883 15.4386 11.5883 15.5367C11.5883 15.6348 11.5494 15.7289 11.4801 15.7982C11.4108 15.8676 11.3168 15.9066 11.2189 15.9066Z" fill="black"/>
</svg>
