<svg width="24" height="24" viewBox="0 0 24 24" fill="none" xmlns="http://www.w3.org/2000/svg">
<path fill-rule="evenodd" clip-rule="evenodd" d="M11.1508 16.5541C9.03105 16.5541 7.31262 14.8229 7.31262 12.6873C7.31262 10.5517 9.03105 8.82043 11.1508 8.82043C13.2706 8.82043 14.989 10.5517 14.989 12.6873C14.989 14.8229 13.2706 16.5541 11.1508 16.5541V16.5541Z" stroke="black" stroke-linecap="round" stroke-linejoin="round"/>
<path fill-rule="evenodd" clip-rule="evenodd" d="M17.1445 16.4526C17.4357 16.7457 17.6458 17.1902 17.6458 17.6048C17.6458 18.0195 17.4822 18.4172 17.191 18.7102C16.9001 19.0036 16.5054 19.1684 16.0938 19.1684C15.6822 19.1684 15.2875 19.0036 14.9967 18.7102C14.6228 18.3418 14.0174 18.1928 13.5389 18.4055C13.0702 18.6079 12.7655 19.0714 12.7635 19.5851V19.7179C12.7635 20.5808 12.0692 21.2803 11.2127 21.2803C10.3562 21.2803 9.66192 20.5808 9.66192 19.7179C9.64964 19.1888 9.31756 18.6507 8.82449 18.468C8.34601 18.2553 7.78717 18.3574 7.41328 18.7258C7.12239 19.0192 6.68117 19.2309 6.26958 19.2309C5.85799 19.2309 5.46326 19.0661 5.1724 18.7727C4.88119 18.4797 4.71756 18.082 4.71756 17.6673C4.71756 17.2527 4.88119 16.855 5.17238 16.562C5.53812 16.1853 5.68597 15.5754 5.4748 15.0934C5.27391 14.6212 4.81387 14.3142 4.30394 14.3122H4.17213C3.31564 14.3122 2.62134 13.6127 2.62134 12.7498C2.62134 11.887 3.31564 11.1875 4.17213 11.1875C4.69733 11.1751 5.23142 10.8405 5.41275 10.3438C5.62394 9.86173 5.52261 9.29872 5.15687 8.92204C4.86568 8.629 4.65554 8.18447 4.65554 7.76981C4.65554 7.35515 4.81915 6.95748 5.11035 6.66443C5.40124 6.37107 5.79594 6.20622 6.20754 6.20622C6.61913 6.20622 7.01385 6.37107 7.30472 6.66445C7.67861 7.0329 8.28397 7.18185 8.76247 6.9691C9.23117 6.76672 9.59786 6.30325 9.59989 5.78951V5.65672C9.59989 4.79384 10.2942 4.09436 11.1507 4.09436C12.0072 4.09436 12.7015 4.79384 12.7015 5.65672C12.7035 6.17045 13.0082 6.70423 13.4769 6.9066C13.9554 7.11936 14.5142 7.01727 14.8881 6.64881C15.179 6.35544 15.6202 6.14373 16.0318 6.14373C16.4434 6.14373 16.8381 6.30858 17.129 6.60194C17.4202 6.895 17.5838 7.29264 17.5838 7.70731C17.5838 8.12197 17.4202 8.51963 17.129 8.81267C16.7632 9.18935 16.6154 9.79923 16.8266 10.2813C17.0275 10.7535 17.4875 11.1229 17.9974 11.125H18.1292C18.9857 11.125 19.68 11.8245 19.68 12.6873C19.68 13.5502 18.9857 14.2497 18.1292 14.2497C17.6193 14.2517 17.0895 14.5587 16.8886 15.0309C16.6774 15.5129 16.7788 16.0759 17.1445 16.4526V16.4526Z" stroke="black" stroke-linecap="round" stroke-linejoin="round"/>
</svg>
